<svg xmlns="http://www.w3.org/2000/svg" viewBox="0 0 20 20" id="x"><path fill="#000" d="M10 0C14.714 0 17.0707 0.000377656 18.5352 1.46484C19.9996 2.92931 20 5.28595 20 10C20 14.714 19.9996 17.0707 18.5352 18.5352C17.0707 19.9996 14.714 20 10 20C5.28595 20 2.92931 19.9996 1.46484 18.5352C0.000377656 17.0707 0 14.714 0 10C0 5.28595 0.000377656 2.92931 1.46484 1.46484C2.92931 0.000377656 5.28595 0 10 0ZM10.2734 17.2656L10.2275 17.2881L10.2139 17.291L10.2051 17.2881L10.1582 17.2646C10.1514 17.263 10.146 17.2643 10.1426 17.2686L10.1406 17.2754L10.1289 17.5557L10.1328 17.5684L10.1387 17.5771L10.207 17.625L10.2168 17.6279L10.2246 17.625L10.293 17.5771L10.3008 17.5664L10.3037 17.5557L10.292 17.2754C10.2902 17.2686 10.2864 17.2645 10.2812 17.2637L10.2734 17.2656ZM9.96875 17.1953L9.96484 17.2041L9.94238 17.6064C9.94283 17.6143 9.94713 17.6195 9.9541 17.6221L9.96387 17.6211L10.0947 17.5596L10.1016 17.5547L10.1035 17.5479L10.1152 17.2656L10.1133 17.2578L10.1064 17.252L9.98633 17.1914C9.98344 17.1897 9.97986 17.1887 9.97656 17.1895C9.97333 17.1902 9.9706 17.1925 9.96875 17.1953ZM10.4453 17.1914L10.3252 17.252L10.3184 17.2588L10.3164 17.2656L10.3281 17.5479L10.3311 17.5557L10.3369 17.5605L10.4688 17.6211C10.4768 17.6231 10.483 17.6208 10.4873 17.6152L10.4902 17.6064L10.4678 17.2041C10.4656 17.1959 10.4606 17.1917 10.4541 17.1904L10.4453 17.1914ZM4.6543 4C4.53289 4.00008 4.41384 4.03384 4.31055 4.09766C4.20711 4.16158 4.12371 4.25355 4.06934 4.3623C4.01503 4.47101 3.99202 4.59284 4.00293 4.71387C4.0139 4.83485 4.05797 4.95067 4.13086 5.04785L8.3457 10.667L4.81641 14.7002C4.75986 14.7649 4.71696 14.8405 4.68945 14.9219C4.66199 15.0033 4.65052 15.0891 4.65625 15.1748C4.662 15.2606 4.68451 15.3448 4.72266 15.4219C4.76074 15.4987 4.8134 15.5675 4.87793 15.624C4.94265 15.6806 5.01816 15.7244 5.09961 15.752C5.18109 15.7795 5.2677 15.7899 5.35352 15.7842C5.43916 15.7784 5.52266 15.7558 5.59961 15.7178C5.67668 15.6796 5.74612 15.6272 5.80273 15.5625L9.14844 11.7383L11.9883 15.5234C12.0493 15.6047 12.1278 15.6713 12.2188 15.7168C12.3097 15.7622 12.4101 15.7851 12.5117 15.7852H15.1309C15.2524 15.7851 15.3712 15.7513 15.4746 15.6875C15.578 15.6236 15.6624 15.5326 15.7168 15.4238C15.7711 15.3152 15.7941 15.1933 15.7832 15.0723C15.7723 14.9512 15.7272 14.8355 15.6543 14.7383L11.4404 9.11914L14.9688 5.08594C15.0254 5.0212 15.0691 4.94574 15.0967 4.86426C15.1241 4.78292 15.1356 4.69697 15.1299 4.61133C15.1241 4.52551 15.1016 4.44134 15.0635 4.36426C15.0253 4.28722 14.9719 4.2187 14.9072 4.16211C14.8425 4.10549 14.767 4.06171 14.6855 4.03418C14.6042 4.00674 14.5182 3.99626 14.4326 4.00195C14.3468 4.0077 14.2626 4.03021 14.1855 4.06836C14.1086 4.10643 14.0399 4.15908 13.9834 4.22363L10.6377 8.04785L7.79785 4.26172C7.73686 4.1804 7.65732 4.11479 7.56641 4.06934C7.4755 4.02389 7.37507 4 7.27344 4H4.6543ZM13.8213 14.4756H12.8389L5.96387 5.30957H6.94629L13.8213 14.4756Z"></path></svg>